<svg xmlns="http://www.w3.org/2000/svg" width="64" height="64" viewBox="0 0 64 64">
  <defs><linearGradient id="s" x1="0" y1="0" x2="0" y2="1">
    <stop offset="0" stop-color="#ffffff" stop-opacity="0.16"/>
    <stop offset="1" stop-color="#000000" stop-opacity="0.26"/>
  </linearGradient></defs>
  <rect x="2" y="2" width="60" height="60" rx="14" fill="#b0c4de" stroke="#00000088" stroke-width="2"/>
  <rect x="2" y="2" width="60" height="60" rx="14" fill="url(#s)"/>
  <g transform="translate(9 9) scale(0.08984)" fill="#191b20"><path d="M18.62 18.707l2.302 456.713c20.172 6.097 50.346 5.194 68.094-5.3 9.74-5.762 15.83-13.314 17.318-24.757 1.49-11.442-2.114-27.866-15.775-49.85-65.15-104.838-43.09-217.272 24.12-283.156 67.208-65.883 179.805-84.665 289.812-7.214 18.312 12.892 28.41 13.426 35.156 10.308 6.748-3.117 13.086-12.55 18.036-26.186 4.95-13.637 8.515-30.532 12.306-45.967 2.094-8.527 4.108-16.49 6.856-23.647L18.62 18.707zm239.07 54.02c-8.728-.036-17.285.53-25.64 1.652l156.454 92.8 21.037-37.436c-5.072-2.376-10.346-5.476-15.806-9.32-47.14-33.19-93.62-47.523-136.043-47.697zM127.913 125.56l-.15.143c-26.928 26.397-46.107 60.924-53.93 99.686 75.5-10.072 121.71 72.345 177.38 61.495 6.68-57.468-59.496-126.038-123.3-161.326zm227.297 47.21c-6.87 36.037-29.7 77.615-66.003 113.92-36.093 36.095-77.76 59.255-113.646 66.27 40.94 8.506 92.248-8.67 131.747-48.17 39.643-39.646 56.63-91 47.902-132.02zm66.103 4.302v.004-.004zm0 .004c-9.198 48.248-39.766 103.918-88.374 152.528-48.327 48.328-104.113 79.337-152.167 88.732 54.816 11.39 123.514-11.608 176.4-64.498 53.08-53.082 75.822-121.842 64.14-176.762zm67.328 10.985c-11.378 59.698-49.203 128.58-109.345 188.725-59.794 59.798-128.82 98.17-188.28 109.79 67.825 14.094 152.828-14.364 218.264-79.804 65.677-65.678 93.815-150.757 79.36-218.71zM71.07 243.337c-4.794 44.69 5.3 93.938 35.362 142.314 7.806 12.562 13.057 24.113 16.01 34.75l36.103-21.412L71.07 243.336z"/></g>
</svg>