<svg xmlns="http://www.w3.org/2000/svg" width="64" height="64" viewBox="0 0 64 64">
  <defs><linearGradient id="s" x1="0" y1="0" x2="0" y2="1">
    <stop offset="0" stop-color="#ffffff" stop-opacity="0.16"/>
    <stop offset="1" stop-color="#000000" stop-opacity="0.26"/>
  </linearGradient></defs>
  <rect x="2" y="2" width="60" height="60" rx="14" fill="#9f4259" stroke="#00000088" stroke-width="2"/>
  <rect x="2" y="2" width="60" height="60" rx="14" fill="url(#s)"/>
  <g transform="translate(9 9) scale(0.08984)" fill="#f4f1ea"><path d="M159.375 30.72v94.186l205.25-51.062V30.72h-205.25zm-45.125.06v448.47h27.78V30.78h-27.78zm266.53 0v448.47h27.783V30.78H380.78zm-16.155 61.25l-205.25 51.064v45.062l205.25-51.656V92.03zm-205.25 279.69v45.217h67.72c3.82-17.578 18.53-30.687 36.093-30.687 17.56 0 32.24 13.11 36.062 30.688h65.375v-44.22l-205.25-1zm0 62.874v43.875h205.25v-43.876h-65.25c-3.668 17.8-18.48 31.125-36.188 31.125-17.708 0-32.52-13.326-36.187-31.126h-67.625z"/></g>
</svg>